<svg xmlns="http://www.w3.org/2000/svg" viewBox="0 0 980 460" width="980" height="460" font-family="'Segoe UI', Arial, sans-serif">
  <defs>
    <marker id="arr" markerWidth="10" markerHeight="7" refX="9" refY="3.5" orient="auto">
      <polygon points="0 0,10 3.5,0 7" fill="#6B7280"/>
    </marker>
    <filter id="sh"><feDropShadow dx="0" dy="2" stdDeviation="3" flood-color="#0002"/></filter>

    <symbol id="i-clock" viewBox="0 0 24 24">
      <circle cx="12" cy="12" r="10" fill="none" stroke="#F59E0B" stroke-width="2"/>
      <polyline points="12,6 12,12 16,14" stroke="#F59E0B" stroke-width="2.5" fill="none" stroke-linecap="round"/>
    </symbol>
    <symbol id="i-github" viewBox="0 0 24 24">
      <path fill="#1F2937" d="M12 2C6.477 2 2 6.484 2 12.017c0 4.425 2.865 8.18 6.839 9.504.5.092.682-.217.682-.483 0-.237-.008-.868-.013-1.703-2.782.605-3.369-1.343-3.369-1.343-.454-1.158-1.11-1.466-1.11-1.466-.908-.62.069-.608.069-.608 1.003.07 1.531 1.032 1.531 1.032.892 1.53 2.341 1.088 2.91.832.092-.647.35-1.088.636-1.338-2.22-.253-4.555-1.113-4.555-4.951 0-1.093.39-1.988 1.029-2.688-.103-.253-.446-1.272.098-2.65 0 0 .84-.27 2.75 1.026A9.564 9.564 0 0112 6.844c.85.004 1.705.115 2.504.337 1.909-1.296 2.747-1.027 2.747-1.027.546 1.379.202 2.398.1 2.651.64.7 1.028 1.595 1.028 2.688 0 3.848-2.339 4.695-4.566 4.943.359.309.678.92.678 1.855 0 1.338-.012 2.419-.012 2.747 0 .268.18.58.688.482A10.019 10.019 0 0022 12.017C22 6.484 17.522 2 12 2z"/>
    </symbol>
    <symbol id="i-gear" viewBox="0 0 24 24">
      <path fill="#DC2626" d="M19.14 12.94c.04-.3.06-.61.06-.94 0-.32-.02-.64-.07-.94l2.03-1.58c.18-.14.23-.41.12-.61l-1.92-3.32c-.12-.22-.37-.29-.59-.22l-2.39.96c-.5-.38-1.03-.7-1.62-.94l-.36-2.54c-.04-.24-.24-.41-.48-.41h-3.84c-.24 0-.43.17-.47.41l-.36 2.54c-.59.24-1.13.57-1.62.94l-2.39-.96c-.22-.08-.47 0-.59.22L2.74 8.87c-.12.21-.08.47.12.61l2.03 1.58c-.05.3-.09.63-.09.94s.02.64.07.94l-2.03 1.58c-.18.14-.23.41-.12.61l1.92 3.32c.12.22.37.29.59.22l2.39-.96c.5.38 1.03.7 1.62.94l.36 2.54c.05.24.24.41.48.41h3.84c.24 0 .44-.17.47-.41l.36-2.54c.59-.24 1.13-.57 1.62-.94l2.39.96c.22.08.47 0 .59-.22l1.92-3.32c.12-.21.08-.47-.12-.61l-2.01-1.58zM12 15.6c-1.98 0-3.6-1.62-3.6-3.6s1.62-3.6 3.6-3.6 3.6 1.62 3.6 3.6-1.62 3.6-3.6 3.6z"/>
    </symbol>
    <symbol id="i-search" viewBox="0 0 24 24">
      <circle cx="10" cy="10" r="6" fill="none" stroke="#15803D" stroke-width="2.2"/>
      <line x1="14.5" y1="14.5" x2="20" y2="20" stroke="#15803D" stroke-width="2.5" stroke-linecap="round"/>
    </symbol>
    <symbol id="i-robot" viewBox="0 0 24 24">
      <rect x="5" y="8" width="14" height="11" rx="2" fill="none" stroke="#7C3AED" stroke-width="2"/>
      <circle cx="9" cy="13" r="1.5" fill="#7C3AED"/>
      <circle cx="15" cy="13" r="1.5" fill="#7C3AED"/>
      <rect x="10" y="15.5" width="4" height="1.5" rx="0.5" fill="#7C3AED"/>
      <line x1="12" y1="5" x2="12" y2="8" stroke="#7C3AED" stroke-width="2"/>
      <circle cx="12" cy="4" r="1.5" fill="#7C3AED"/>
    </symbol>
    <symbol id="i-camera" viewBox="0 0 24 24">
      <path fill="none" stroke="#EA580C" stroke-width="2" d="M23 19a2 2 0 01-2 2H3a2 2 0 01-2-2V8a2 2 0 012-2h4l2-3h6l2 3h4a2 2 0 012 2z"/>
      <circle cx="12" cy="13" r="4" fill="none" stroke="#EA580C" stroke-width="2"/>
    </symbol>
    <symbol id="i-doc" viewBox="0 0 24 24">
      <path fill="none" stroke="#0369A1" stroke-width="2" d="M14 2H6a2 2 0 00-2 2v16a2 2 0 002 2h12a2 2 0 002-2V8z"/>
      <polyline points="14,2 14,8 20,8" fill="none" stroke="#0369A1" stroke-width="2"/>
      <line x1="8" y1="13" x2="16" y2="13" stroke="#0369A1" stroke-width="1.5"/>
      <line x1="8" y1="17" x2="16" y2="17" stroke="#0369A1" stroke-width="1.5"/>
    </symbol>
    <symbol id="i-toss" viewBox="0 0 40 40">
      <rect width="40" height="40" rx="10" fill="#0064FF"/>
      <text x="20" y="29" text-anchor="middle" font-size="26" font-weight="900" fill="white" font-family="Arial">T</text>
    </symbol>
  </defs>

  <!-- Background -->
  <rect width="980" height="460" fill="#F1F5F9"/>

  <!-- ─── 1. CRON ─── -->
  <rect x="16" y="165" width="116" height="120" rx="12" fill="white" stroke="#FCD34D" stroke-width="2" filter="url(#sh)"/>
  <rect x="16" y="165" width="116" height="28" rx="12" fill="#FEF3C7"/>
  <rect x="16" y="181" width="116" height="12" fill="#FEF3C7"/>
  <text x="74" y="180" text-anchor="middle" font-size="10" font-weight="700" fill="#92400E">Scheduled Task</text>
  <use href="#i-clock" x="55" y="200" width="38" height="38"/>
  <text x="74" y="258" text-anchor="middle" font-size="11" font-weight="600" fill="#374151">07:01 KST</text>
  <text x="74" y="274" text-anchor="middle" font-size="9.5" fill="#9CA3AF">매일 자동 실행</text>

  <!-- arrow: cron → local -->
  <line x1="132" y1="225" x2="158" y2="225" stroke="#6B7280" stroke-width="1.5" marker-end="url(#arr)"/>

  <!-- ─── 2. LOCAL MACHINE ─── -->
  <rect x="158" y="24" width="390" height="408" rx="14" fill="white" stroke="#93C5FD" stroke-width="2" filter="url(#sh)"/>
  <rect x="158" y="24" width="390" height="30" rx="14" fill="#EFF6FF"/>
  <rect x="158" y="40" width="390" height="14" fill="#EFF6FF"/>
  <text x="353" y="44" text-anchor="middle" font-size="11" font-weight="700" fill="#1D4ED8">로컬 머신 (Claude Code)</text>

  <!-- WebSearch -->
  <rect x="174" y="70" width="168" height="112" rx="10" fill="#F0FDF4" stroke="#86EFAC" stroke-width="1.5"/>
  <use href="#i-search" x="257" y="84" width="34" height="34"/>
  <text x="258" y="136" text-anchor="middle" font-size="11" font-weight="700" fill="#15803D">WebSearch</text>
  <text x="258" y="153" text-anchor="middle" font-size="9.5" fill="#166534">뉴스 수집</text>

  <!-- Claude AI -->
  <rect x="358" y="70" width="172" height="112" rx="10" fill="#FAF5FF" stroke="#C4B5FD" stroke-width="1.5"/>
  <use href="#i-robot" x="441" y="84" width="34" height="34"/>
  <text x="444" y="136" text-anchor="middle" font-size="11" font-weight="700" fill="#7C3AED">Claude AI</text>
  <text x="444" y="153" text-anchor="middle" font-size="9.5" fill="#6D28D9">카드뉴스 작성</text>

  <!-- arrows row 1 -->
  <line x1="342" y1="126" x2="358" y2="126" stroke="#6B7280" stroke-width="1.5" marker-end="url(#arr)"/>
  <line x1="258" y1="182" x2="258" y2="208" stroke="#6B7280" stroke-width="1.5" marker-end="url(#arr)"/>
  <line x1="444" y1="182" x2="444" y2="208" stroke="#6B7280" stroke-width="1.5" marker-end="url(#arr)"/>

  <!-- Pexels -->
  <rect x="174" y="208" width="168" height="112" rx="10" fill="#FFF7ED" stroke="#FDBA74" stroke-width="1.5"/>
  <use href="#i-camera" x="257" y="222" width="34" height="34"/>
  <text x="258" y="274" text-anchor="middle" font-size="11" font-weight="700" fill="#EA580C">Pexels API</text>
  <text x="258" y="291" text-anchor="middle" font-size="9.5" fill="#9A3412">사진 자동 매칭</text>

  <!-- cards.json -->
  <rect x="358" y="208" width="172" height="112" rx="10" fill="#F0F9FF" stroke="#7DD3FC" stroke-width="1.5"/>
  <use href="#i-doc" x="441" y="222" width="34" height="34"/>
  <text x="444" y="274" text-anchor="middle" font-size="11" font-weight="700" fill="#0369A1">cards.json</text>
  <text x="444" y="291" text-anchor="middle" font-size="9.5" fill="#0C4A6E">업데이트</text>

  <!-- arrow: pexels → cards -->
  <line x1="342" y1="264" x2="358" y2="264" stroke="#6B7280" stroke-width="1.5" marker-end="url(#arr)"/>

  <!-- Terminal -->
  <rect x="174" y="342" width="356" height="68" rx="10" fill="#111827"/>
  <text x="192" y="364" font-size="10.5" fill="#4ADE80" font-family="monospace">$ git add src/data/cards.json</text>
  <text x="192" y="382" font-size="10.5" fill="#4ADE80" font-family="monospace">$ git commit &amp;&amp; git push origin main</text>
  <text x="510" y="400" font-size="9" fill="#6B7280" text-anchor="middle">git push</text>

  <!-- arrow: local → github -->
  <line x1="548" y1="225" x2="588" y2="225" stroke="#6B7280" stroke-width="2" marker-end="url(#arr)"/>

  <!-- ─── 3. GITHUB ─── -->
  <rect x="588" y="118" width="140" height="130" rx="12" fill="white" stroke="#D1D5DB" stroke-width="2" filter="url(#sh)"/>
  <rect x="588" y="118" width="140" height="28" rx="12" fill="#F3F4F6"/>
  <rect x="588" y="134" width="140" height="12" fill="#F3F4F6"/>
  <text x="658" y="133" text-anchor="middle" font-size="10" font-weight="700" fill="#1F2937">GitHub</text>
  <use href="#i-github" x="622" y="154" width="40" height="40"/>
  <text x="658" y="214" text-anchor="middle" font-size="10" fill="#374151">today-1-minute</text>
  <text x="658" y="230" text-anchor="middle" font-size="9" fill="#9CA3AF">main branch</text>

  <!-- arrow: github → actions -->
  <line x1="658" y1="248" x2="658" y2="276" stroke="#6B7280" stroke-width="1.5" marker-end="url(#arr)"/>

  <!-- ─── 4. GITHUB ACTIONS ─── -->
  <rect x="588" y="276" width="140" height="120" rx="12" fill="white" stroke="#FCA5A5" stroke-width="2" filter="url(#sh)"/>
  <rect x="588" y="276" width="140" height="28" rx="12" fill="#FEF2F2"/>
  <rect x="588" y="292" width="140" height="12" fill="#FEF2F2"/>
  <text x="658" y="291" text-anchor="middle" font-size="10" font-weight="700" fill="#B91C1C">GitHub Actions</text>
  <use href="#i-gear" x="622" y="312" width="40" height="40"/>
  <text x="658" y="368" text-anchor="middle" font-size="9.5" fill="#374151">ait build → ait deploy</text>

  <!-- arrow: actions → 앱인토스 -->
  <line x1="728" y1="336" x2="778" y2="336" stroke="#6B7280" stroke-width="2" marker-end="url(#arr)"/>

  <!-- ─── 5. 앱인토스 ─── -->
  <rect x="778" y="118" width="176" height="238" rx="12" fill="white" stroke="#93C5FD" stroke-width="2" filter="url(#sh)"/>
  <rect x="778" y="118" width="176" height="28" rx="12" fill="#EFF6FF"/>
  <rect x="778" y="134" width="176" height="12" fill="#EFF6FF"/>
  <text x="866" y="133" text-anchor="middle" font-size="10" font-weight="700" fill="#1D4ED8">앱인토스</text>
  <use href="#i-toss" x="846" y="158" width="40" height="40"/>
  <text x="866" y="218" text-anchor="middle" font-size="11" font-weight="600" fill="#1F2937">Apps in Toss</text>
  <line x1="796" y1="232" x2="938" y2="232" stroke="#DBEAFE" stroke-width="1"/>
  <text x="866" y="256" text-anchor="middle" font-size="9.5" fill="#6B7280">버전 관리</text>
  <text x="866" y="274" text-anchor="middle" font-size="9.5" fill="#6B7280">자동 배포</text>
  <text x="866" y="292" text-anchor="middle" font-size="9.5" fill="#6B7280">롤백 지원</text>
  <text x="866" y="310" text-anchor="middle" font-size="9.5" fill="#6B7280">긴급 점검</text>
  <text x="866" y="344" text-anchor="middle" font-size="9" fill="#BFDBFE">하루1분 미니앱</text>
</svg>
